<svg xmlns="http://www.w3.org/2000/svg" xmlns:xlink="http://www.w3.org/1999/xlink" viewBox="0 0 121 25"><path d="M 103.852 9.382 C 104.237 9.695 104.545 10.03 104.79 10.422 C 105.578 11.677 105.272 13.765 103.899 14.719 C 103.03 15.324 102.062 15.628 101.017 15.725 C 100.137 15.806 99.257 15.763 98.374 15.77 C 98.081 15.772 97.793 15.79 97.516 15.894 C 97.285 15.981 97.098 16.119 97.086 16.391 C 97.075 16.672 97.255 16.843 97.487 16.947 C 97.838 17.104 98.219 17.093 98.593 17.095 C 99.952 17.1 101.312 17.095 102.672 17.1 C 103.343 17.1 104 17.196 104.613 17.484 C 105.734 18.011 106.324 18.933 106.501 20.13 C 106.724 21.636 106.355 22.938 105.115 23.908 C 104.419 24.45 103.611 24.736 102.751 24.887 C 102.271 24.97 101.783 24.995 101.296 24.995 C 99.205 24.995 97.113 24.997 95.022 24.995 C 94.009 24.993 93.147 24.637 92.523 23.82 C 91.514 22.5 91.812 20.763 93.196 19.779 C 93.378 19.651 93.574 19.541 93.766 19.422 C 91.911 18.002 92.424 15.581 94.851 14.787 C 94.765 14.652 94.621 14.595 94.509 14.505 C 93.831 13.963 93.23 13.351 93.075 12.46 C 92.84 11.121 93.297 9.706 94.704 8.982 C 95.731 8.453 96.836 8.23 97.973 8.145 C 98.975 8.07 99.977 8.073 100.974 8.214 C 101.055 8.226 101.119 8.221 101.186 8.178 C 101.922 7.704 102.595 7.173 102.827 6.271 C 102.859 6.147 102.931 6.136 103.032 6.136 C 104.149 6.136 105.263 6.138 106.38 6.136 C 106.531 6.136 106.564 6.187 106.555 6.336 C 106.474 7.83 105.851 8.667 104.405 9.193 C 104.232 9.256 104.054 9.31 103.843 9.382 Z M 99.135 20.272 C 98.536 20.272 97.935 20.27 97.336 20.272 C 96.641 20.277 96.22 20.677 96.22 21.327 C 96.22 21.984 96.681 22.466 97.345 22.47 C 98.536 22.477 99.725 22.477 100.916 22.47 C 101.596 22.466 102.066 22.002 102.069 21.357 C 102.069 20.695 101.623 20.274 100.909 20.272 C 100.319 20.27 99.727 20.272 99.137 20.272 Z M 99.104 13.41 C 99.302 13.428 99.498 13.392 99.689 13.351 C 100.432 13.194 100.817 12.717 100.828 11.965 C 100.837 11.182 100.477 10.705 99.725 10.525 C 99.261 10.413 98.795 10.419 98.343 10.588 C 97.701 10.829 97.386 11.342 97.429 12.069 C 97.469 12.753 97.847 13.2 98.518 13.349 C 98.71 13.392 98.905 13.428 99.104 13.41 Z M 32.743 4.77 C 33.615 4.77 34.488 4.774 35.359 4.765 C 35.551 4.765 35.654 4.806 35.726 5.006 C 37.545 10.012 39.374 15.014 41.204 20.016 C 41.285 20.236 41.244 20.277 41.017 20.277 C 39.432 20.268 37.847 20.268 36.262 20.277 C 36.048 20.277 35.972 20.202 35.92 20.013 C 35.758 19.428 35.573 18.85 35.407 18.265 C 35.366 18.123 35.303 18.076 35.155 18.076 C 33.486 18.081 31.816 18.081 30.148 18.076 C 29.988 18.076 29.92 18.121 29.877 18.279 C 29.711 18.873 29.519 19.458 29.353 20.052 C 29.308 20.214 29.247 20.277 29.069 20.277 C 27.523 20.27 25.976 20.268 24.427 20.277 C 24.191 20.277 24.195 20.207 24.263 20.022 C 26.097 15.014 27.928 10.003 29.751 4.99 C 29.814 4.817 29.893 4.765 30.071 4.768 C 30.963 4.777 31.852 4.772 32.743 4.772 Z M 30.978 14.602 L 34.159 14.602 C 34.391 14.602 34.258 14.454 34.236 14.373 C 33.745 12.687 33.252 11.004 32.755 9.321 C 32.734 9.249 32.73 9.159 32.622 9.094 C 32.072 10.935 31.53 12.755 30.981 14.604 Z M 75.503 19.073 C 74.755 19.626 73.965 20.067 73.074 20.297 C 71.808 20.621 70.53 20.634 69.264 20.317 C 67.869 19.968 67.112 19.12 66.966 17.685 C 66.828 16.35 67.06 15.117 68.222 14.244 C 68.76 13.839 69.372 13.585 70.023 13.423 C 71.378 13.086 72.761 13.014 74.15 12.973 C 74.413 12.966 74.674 12.96 74.938 12.966 C 75.089 12.971 75.174 12.935 75.149 12.768 L 75.149 12.741 C 75.179 11.531 74.65 10.989 73.432 10.982 C 73.053 10.982 72.686 11.034 72.333 11.178 C 71.986 11.319 71.748 11.551 71.723 11.943 C 71.714 12.087 71.655 12.109 71.534 12.109 C 70.183 12.107 68.832 12.105 67.481 12.109 C 67.292 12.109 67.272 12.017 67.268 11.866 C 67.249 10.755 67.727 9.904 68.621 9.267 C 69.411 8.707 70.309 8.417 71.25 8.275 C 73.035 8.007 74.816 8.014 76.575 8.48 C 77.009 8.595 77.428 8.759 77.831 8.964 C 79.037 9.571 79.632 10.559 79.639 11.898 C 79.648 13.434 79.641 14.971 79.639 16.508 C 79.639 16.668 79.645 16.825 79.695 16.98 C 79.801 17.311 80.006 17.473 80.354 17.48 C 80.562 17.484 80.766 17.489 80.974 17.48 C 81.115 17.473 81.172 17.514 81.172 17.667 C 81.165 18.425 81.165 19.185 81.172 19.944 C 81.172 20.092 81.093 20.133 80.98 20.173 C 80.197 20.468 79.382 20.565 78.551 20.529 C 78.234 20.515 77.914 20.49 77.601 20.43 C 76.728 20.261 75.958 19.914 75.501 19.075 Z M 75.147 15.734 C 75.147 15.603 75.134 15.471 75.149 15.342 C 75.172 15.144 75.1 15.09 74.904 15.093 C 74.474 15.099 74.042 15.115 73.616 15.174 C 72.984 15.264 72.36 15.39 71.842 15.804 C 71.507 16.071 71.365 16.418 71.444 16.845 C 71.523 17.268 71.793 17.511 72.191 17.633 C 72.5 17.727 72.819 17.73 73.137 17.716 C 74.402 17.66 75.145 16.924 75.145 15.734 Z M 121 8.37 C 120.73 9.105 120.475 9.807 120.217 10.507 C 119.032 13.725 117.857 16.947 116.662 20.162 C 116.223 21.343 115.633 22.443 114.789 23.397 C 113.947 24.347 112.87 24.804 111.637 24.939 C 110.547 25.058 109.469 24.977 108.411 24.673 C 108.206 24.615 108.134 24.525 108.138 24.306 C 108.154 23.575 108.149 22.844 108.138 22.115 C 108.136 21.928 108.194 21.874 108.379 21.879 C 108.942 21.89 109.505 21.888 110.068 21.881 C 111.033 21.87 111.648 21.384 111.907 20.459 C 111.95 20.308 111.925 20.187 111.873 20.054 C 110.371 16.285 108.872 12.519 107.373 8.75 C 107.272 8.496 107.355 8.37 107.62 8.37 C 109.007 8.37 110.396 8.376 111.783 8.363 C 112.006 8.363 112.082 8.433 112.141 8.64 C 112.832 11.067 113.535 13.491 114.233 15.914 C 114.246 15.959 114.251 16.008 114.271 16.049 C 114.309 16.119 114.278 16.242 114.39 16.247 C 114.521 16.254 114.509 16.128 114.532 16.042 C 115.187 13.576 115.844 11.11 116.493 8.642 C 116.547 8.435 116.619 8.358 116.842 8.361 C 118.211 8.372 119.579 8.367 121 8.367 Z M 50.932 18.492 C 50.013 19.649 48.861 20.272 47.481 20.475 C 46.636 20.598 45.794 20.553 44.982 20.279 C 43.613 19.813 42.94 18.774 42.669 17.417 C 42.582 16.976 42.55 16.528 42.55 16.076 C 42.552 13.603 42.555 11.128 42.546 8.655 C 42.546 8.424 42.602 8.361 42.838 8.363 C 44.142 8.374 45.445 8.376 46.749 8.363 C 47.01 8.361 47.053 8.442 47.051 8.678 C 47.042 10.908 47.044 13.137 47.046 15.369 C 47.046 15.556 47.046 15.747 47.078 15.93 C 47.177 16.488 47.433 16.951 48.01 17.124 C 48.658 17.318 49.275 17.221 49.797 16.76 C 50.223 16.384 50.405 15.9 50.403 15.336 C 50.398 13.124 50.405 10.912 50.394 8.7 C 50.394 8.428 50.461 8.361 50.734 8.363 C 52.037 8.379 53.341 8.374 54.644 8.363 C 54.856 8.363 54.912 8.417 54.912 8.628 C 54.905 12.424 54.905 16.218 54.912 20.013 C 54.912 20.225 54.854 20.279 54.644 20.277 C 53.584 20.265 52.526 20.263 51.465 20.277 C 51.247 20.279 51.2 20.189 51.173 20.011 C 51.101 19.523 51.02 19.037 50.932 18.49 Z M 63.04 13.963 C 63.04 14.694 63.035 15.423 63.042 16.155 C 63.042 16.321 63.069 16.492 63.105 16.654 C 63.215 17.158 63.524 17.435 64.044 17.464 C 64.465 17.487 64.888 17.482 65.309 17.473 C 65.496 17.469 65.572 17.507 65.568 17.716 C 65.554 18.447 65.561 19.179 65.563 19.908 C 65.563 20.038 65.561 20.137 65.394 20.175 C 63.798 20.558 62.193 20.72 60.59 20.263 C 59.199 19.869 58.541 18.951 58.537 17.48 C 58.532 15.774 58.537 14.069 58.532 12.363 C 58.532 12.057 58.665 11.648 58.476 11.475 C 58.312 11.324 57.906 11.436 57.607 11.425 C 57.375 11.416 57.073 11.524 56.927 11.382 C 56.767 11.227 56.875 10.921 56.873 10.68 C 56.866 9.987 56.873 9.294 56.866 8.601 C 56.866 8.421 56.911 8.356 57.103 8.363 C 57.524 8.379 57.947 8.347 58.368 8.374 C 58.652 8.394 58.748 8.284 58.814 8.025 C 59.064 7.029 59.345 6.039 59.599 5.042 C 59.651 4.842 59.721 4.756 59.951 4.761 C 60.898 4.777 61.844 4.772 62.792 4.763 C 62.976 4.763 63.03 4.813 63.028 4.999 C 63.019 6.039 63.028 7.078 63.019 8.12 C 63.019 8.311 63.06 8.376 63.265 8.372 C 63.94 8.358 64.615 8.374 65.291 8.363 C 65.491 8.358 65.568 8.399 65.563 8.622 C 65.55 9.474 65.552 10.327 65.563 11.18 C 65.565 11.378 65.505 11.434 65.311 11.432 C 64.627 11.421 63.942 11.432 63.258 11.423 C 63.073 11.421 63.021 11.475 63.024 11.659 C 63.033 12.426 63.028 13.196 63.028 13.963 L 63.037 13.963 Z M 0.007 13.504 C 0.007 11.247 0.011 8.988 0 6.729 C 0 6.493 0.061 6.442 0.293 6.442 C 1.175 6.442 2.06 6.428 2.877 6.835 C 4.413 7.6 5.277 8.835 5.288 10.557 C 5.315 15.007 5.295 19.458 5.304 23.908 C 5.304 24.158 5.243 24.219 4.996 24.214 C 4.275 24.201 3.553 24.221 2.855 23.989 C 1.148 23.427 0.007 21.852 0.007 20.054 Z M 10.541 6.761 L 4.323 6.761 C 3.17 6.761 2.146 6.419 1.301 5.618 C 0.471 4.826 0.034 3.847 0.007 2.695 C 0 2.349 0.014 2.002 0.002 1.656 C 0 1.505 0.052 1.462 0.196 1.467 C 0.468 1.476 0.741 1.469 1.011 1.469 L 13.418 1.469 C 15.365 1.469 17.007 2.749 17.482 4.637 C 17.646 5.292 17.581 5.96 17.594 6.622 C 17.594 6.714 17.556 6.761 17.461 6.759 L 10.541 6.759 Z M 17.558 19.212 C 17.558 20.776 17.554 22.342 17.563 23.906 C 17.563 24.14 17.502 24.216 17.261 24.196 C 16.005 24.097 14.89 23.663 13.96 22.806 C 12.977 21.901 12.389 20.776 12.283 19.444 C 12.166 17.995 12.249 16.542 12.245 15.09 C 12.245 14.818 12.184 14.715 11.898 14.665 C 9.622 14.28 8.008 12.728 7.519 10.478 C 7.459 10.203 7.432 9.924 7.425 9.643 C 7.423 9.499 7.468 9.443 7.616 9.445 C 9.379 9.472 11.144 9.36 12.902 9.499 C 15.106 9.675 17.052 11.522 17.452 13.74 C 17.522 14.127 17.558 14.519 17.558 14.913 C 17.556 16.346 17.558 17.779 17.558 19.215 Z M 86.591 10.116 C 86.78 9.747 86.944 9.445 87.176 9.184 C 88.05 8.192 89.779 7.787 91.03 8.277 C 91.143 8.322 91.19 8.374 91.19 8.498 C 91.186 9.641 91.183 10.784 91.19 11.927 C 91.19 12.102 91.116 12.118 90.972 12.12 C 90.355 12.129 89.734 12.071 89.119 12.165 C 87.968 12.345 87.345 12.989 87.178 14.136 C 87.133 14.442 87.115 14.751 87.115 15.059 C 87.115 16.708 87.111 18.357 87.12 20.004 C 87.12 20.209 87.077 20.277 86.859 20.274 C 85.528 20.263 84.195 20.265 82.865 20.274 C 82.664 20.274 82.617 20.218 82.617 20.025 C 82.624 16.222 82.624 12.417 82.617 8.615 C 82.617 8.424 82.66 8.361 82.862 8.363 C 83.932 8.374 85.001 8.37 86.068 8.363 C 86.235 8.363 86.318 8.392 86.343 8.581 C 86.408 9.072 86.498 9.558 86.588 10.111 Z" fill="rgb(255,255,255)"></path></svg>