<svg xmlns="http://www.w3.org/2000/svg" xmlns:xlink="http://www.w3.org/1999/xlink" viewBox="0 0 116 21"><path d="M 98.667 7.292 C 98.667 8.946 98.674 10.6 98.664 12.251 C 98.654 13.633 98.573 15.011 98.187 16.348 C 97.53 18.614 96.061 19.722 93.786 20.098 C 92.221 20.354 90.654 20.337 89.095 20.08 C 86.462 19.648 84.996 18.19 84.465 15.551 C 84.246 14.467 84.172 13.377 84.17 12.278 C 84.162 8.437 84.17 4.597 84.16 0.756 C 84.16 0.48 84.236 0.425 84.494 0.43 C 85.23 0.448 85.965 0.45 86.701 0.43 C 86.962 0.423 87.011 0.507 87.009 0.751 C 87.001 4.582 87.004 8.413 87.004 12.244 C 87.004 13.283 87.063 14.317 87.321 15.329 C 87.685 16.746 88.63 17.506 90.037 17.713 C 91.097 17.871 92.162 17.874 93.215 17.617 C 94.357 17.341 95.063 16.612 95.427 15.519 C 95.697 14.709 95.813 13.868 95.815 13.021 C 95.83 8.948 95.833 4.876 95.823 0.803 C 95.823 0.502 95.889 0.416 96.197 0.425 C 96.92 0.45 97.648 0.443 98.371 0.428 C 98.61 0.423 98.671 0.49 98.671 0.727 C 98.662 2.913 98.667 5.1 98.667 7.29 Z M 4.507 17.758 C 5.565 17.773 6.622 17.77 7.68 17.735 C 8.054 17.723 8.423 17.686 8.79 17.617 C 9.838 17.42 10.317 16.96 10.509 15.911 C 10.637 15.213 10.617 14.509 10.517 13.806 C 10.369 12.794 9.724 12.261 8.8 12.004 C 7.319 11.589 5.835 11.187 4.352 10.78 C 3.52 10.553 2.726 10.247 2.039 9.714 C 1.102 8.988 0.645 7.981 0.455 6.85 C 0.251 5.629 0.271 4.402 0.522 3.185 C 0.846 1.608 1.835 0.694 3.39 0.379 C 4.63 0.127 5.887 0.092 7.146 0.114 C 8.416 0.139 9.68 0.213 10.942 0.371 C 11.491 0.44 12.032 0.566 12.576 0.657 C 12.723 0.682 12.743 0.744 12.728 0.88 C 12.672 1.391 12.62 1.901 12.588 2.415 C 12.573 2.644 12.485 2.694 12.271 2.686 C 10.549 2.615 8.827 2.595 7.105 2.593 C 6.32 2.593 5.533 2.56 4.755 2.711 C 3.855 2.886 3.434 3.271 3.26 4.175 C 3.107 4.972 3.105 5.779 3.292 6.574 C 3.461 7.295 3.946 7.734 4.6 8.008 C 5.523 8.396 6.507 8.571 7.464 8.84 C 8.276 9.069 9.092 9.282 9.909 9.501 C 11.973 10.054 13.117 11.407 13.363 13.515 C 13.506 14.751 13.503 15.985 13.198 17.207 C 12.814 18.735 11.779 19.564 10.303 19.91 C 8.748 20.275 7.169 20.258 5.587 20.224 C 3.973 20.187 2.376 20.006 0.787 19.725 C 0.627 19.698 0.571 19.651 0.593 19.471 C 0.657 18.94 0.709 18.409 0.741 17.876 C 0.753 17.661 0.834 17.612 1.036 17.619 C 2.192 17.671 3.351 17.711 4.507 17.753 Z M 106.576 17.758 C 107.673 17.775 108.772 17.77 109.869 17.731 C 110.263 17.716 110.649 17.661 111.036 17.582 C 111.906 17.407 112.408 16.877 112.571 16.013 C 112.701 15.324 112.699 14.63 112.62 13.937 C 112.499 12.871 111.865 12.268 110.863 11.997 C 109.38 11.592 107.897 11.185 106.413 10.777 C 105.564 10.543 104.75 10.227 104.056 9.664 C 103.154 8.934 102.713 7.946 102.536 6.831 C 102.327 5.525 102.344 4.222 102.669 2.933 C 103.04 1.455 104.049 0.665 105.491 0.376 C 107.173 0.04 108.873 0.072 110.576 0.159 C 111.882 0.223 113.183 0.356 114.47 0.611 C 114.753 0.667 114.851 0.756 114.807 1.052 C 114.735 1.509 114.694 1.973 114.662 2.435 C 114.647 2.647 114.566 2.691 114.364 2.684 C 112.642 2.612 110.92 2.593 109.198 2.59 C 108.485 2.59 107.769 2.57 107.058 2.672 C 105.933 2.83 105.481 3.249 105.311 4.37 C 105.205 5.068 105.213 5.774 105.355 6.473 C 105.508 7.235 105.988 7.709 106.676 8.003 C 107.523 8.366 108.428 8.526 109.306 8.776 C 110.312 9.062 111.331 9.294 112.33 9.607 C 114.371 10.249 115.286 11.74 115.481 13.771 C 115.574 14.756 115.557 15.739 115.395 16.724 C 115.087 18.582 113.963 19.602 112.167 19.964 C 110.686 20.263 109.188 20.258 107.685 20.224 C 106.071 20.187 104.475 20.006 102.885 19.727 C 102.701 19.695 102.657 19.624 102.676 19.448 C 102.738 18.918 102.802 18.387 102.836 17.856 C 102.851 17.647 102.927 17.612 103.112 17.622 C 104.268 17.671 105.427 17.711 106.583 17.755 Z M 80.94 0.435 C 80.689 0.902 80.462 1.324 80.234 1.746 C 78.819 4.357 77.407 6.969 75.985 9.575 C 75.879 9.768 75.882 9.906 75.985 10.096 C 77.7 13.243 79.405 16.395 81.112 19.545 C 81.168 19.648 81.22 19.755 81.299 19.913 L 80.46 19.913 C 79.825 19.913 79.191 19.903 78.556 19.917 C 78.339 19.922 78.241 19.843 78.145 19.661 C 76.669 16.822 75.183 13.986 73.71 11.145 C 73.589 10.916 73.456 10.837 73.2 10.834 C 72.942 10.834 72.812 10.918 72.694 11.145 C 71.225 13.976 69.742 16.802 68.271 19.634 C 68.167 19.834 68.061 19.925 67.818 19.92 C 66.932 19.9 66.047 19.913 65.146 19.913 C 65.129 19.762 65.227 19.663 65.287 19.557 C 66.977 16.42 68.664 13.283 70.364 10.153 C 70.489 9.923 70.492 9.756 70.364 9.524 C 68.775 6.596 67.196 3.661 65.614 0.729 C 65.572 0.65 65.533 0.569 65.493 0.49 C 65.557 0.398 65.646 0.44 65.717 0.44 C 66.534 0.438 67.348 0.448 68.165 0.433 C 68.386 0.428 68.499 0.499 68.603 0.697 C 69.958 3.303 71.328 5.905 72.681 8.512 C 72.807 8.751 72.959 8.798 73.2 8.795 C 73.442 8.795 73.594 8.753 73.719 8.512 C 75.072 5.903 76.443 3.303 77.801 0.697 C 77.904 0.499 78.012 0.428 78.236 0.43 C 79.119 0.445 80.002 0.435 80.94 0.435 Z M 50.736 10.18 C 50.736 8.104 50.731 6.028 50.736 3.953 C 50.74 2.691 51.191 1.652 52.3 0.971 C 52.834 0.643 53.422 0.455 54.044 0.44 C 56.32 0.386 58.595 0.398 60.871 0.48 C 61.535 0.502 62.199 0.541 62.863 0.559 C 63.065 0.564 63.117 0.623 63.1 0.825 C 63.055 1.368 63.021 1.911 63.011 2.454 C 63.009 2.694 62.935 2.753 62.701 2.753 C 60.283 2.746 57.867 2.748 55.449 2.748 C 55.289 2.748 55.127 2.755 54.967 2.773 C 54.047 2.876 53.601 3.318 53.584 4.246 C 53.555 5.616 53.577 6.989 53.565 8.358 C 53.565 8.62 53.727 8.558 53.865 8.558 L 60.362 8.558 C 60.765 8.558 61.168 8.571 61.569 8.553 C 61.811 8.544 61.909 8.6 61.899 8.864 C 61.879 9.388 61.879 9.914 61.899 10.437 C 61.906 10.679 61.828 10.738 61.594 10.738 C 59.036 10.731 56.477 10.738 53.919 10.726 C 53.619 10.726 53.56 10.812 53.562 11.096 C 53.577 12.619 53.567 14.139 53.569 15.662 C 53.569 15.914 53.572 16.163 53.621 16.415 C 53.774 17.19 54.221 17.6 55.016 17.612 C 56.204 17.632 57.392 17.622 58.581 17.624 C 59.951 17.624 61.321 17.632 62.691 17.619 C 62.947 17.619 63.009 17.696 63.011 17.938 C 63.021 18.471 63.058 19.004 63.097 19.537 C 63.112 19.715 63.08 19.784 62.883 19.794 C 59.995 19.94 57.105 19.954 54.214 19.915 C 52.969 19.898 51.924 19.404 51.232 18.313 C 50.854 17.716 50.728 17.049 50.728 16.351 L 50.728 10.183 Z M 24.315 10.955 L 16.79 10.955 C 16.625 10.955 16.477 10.982 16.477 10.726 C 16.492 8.65 16.529 6.574 17.117 4.557 C 17.491 3.274 18.103 2.136 19.215 1.329 C 20.005 0.756 20.905 0.448 21.857 0.287 C 23.845 -0.051 25.828 -0.041 27.781 0.512 C 29.488 0.996 30.63 2.106 31.274 3.75 C 31.825 5.157 32.002 6.633 32.101 8.122 C 32.157 8.966 32.17 9.812 32.172 10.659 C 32.172 10.898 32.106 10.96 31.87 10.96 C 29.351 10.95 26.834 10.955 24.315 10.955 Z M 24.357 10.173 C 25.867 10.173 27.378 10.168 28.888 10.178 C 29.139 10.178 29.232 10.141 29.223 9.857 C 29.203 9.252 29.193 8.647 29.144 8.045 C 29.06 6.991 28.932 5.942 28.546 4.945 C 28.148 3.913 27.474 3.17 26.391 2.822 C 25.749 2.617 25.097 2.541 24.431 2.533 C 23.589 2.521 22.763 2.615 21.978 2.943 C 20.753 3.456 20.199 4.488 19.902 5.7 C 19.562 7.077 19.513 8.487 19.478 9.899 C 19.474 10.133 19.542 10.18 19.761 10.178 C 21.292 10.168 22.822 10.173 24.354 10.173 Z M 36.18 8.539 C 36.18 5.959 36.187 3.38 36.17 0.798 C 36.17 0.477 36.263 0.418 36.556 0.428 C 37.269 0.45 37.985 0.445 38.701 0.428 C 38.94 0.423 39.001 0.49 39.001 0.729 C 38.994 4.73 38.996 8.731 38.996 12.732 C 38.996 13.801 38.986 14.87 39.006 15.936 C 39.026 16.97 39.592 17.541 40.637 17.548 C 42.913 17.568 45.191 17.563 47.466 17.555 C 47.747 17.555 47.847 17.612 47.85 17.911 C 47.855 18.424 47.902 18.938 47.956 19.448 C 47.98 19.69 47.894 19.755 47.67 19.767 C 46.494 19.834 45.319 19.9 44.14 19.91 C 42.691 19.922 41.24 19.92 39.791 19.922 C 39.417 19.922 39.048 19.863 38.686 19.769 C 37.301 19.409 36.371 18.293 36.229 16.852 C 36.182 16.368 36.184 15.887 36.182 15.403 L 36.182 8.541 Z M 24.362 11.723 L 31.732 11.723 C 32.199 11.723 32.118 11.673 32.113 12.13 L 32.113 12.16 C 32.157 12.463 32.01 12.515 31.734 12.515 C 28.098 12.505 24.465 12.51 20.829 12.51 C 19.51 12.51 18.192 12.503 16.871 12.515 C 16.622 12.515 16.517 12.446 16.539 12.199 C 16.544 12.14 16.539 12.078 16.529 12.019 C 16.48 11.78 16.573 11.718 16.812 11.718 C 19.328 11.725 21.847 11.723 24.364 11.723 Z M 24.325 14.05 C 21.887 14.05 19.451 14.05 17.014 14.048 C 16.915 14.048 16.758 14.115 16.731 13.961 C 16.691 13.747 16.632 13.53 16.664 13.307 C 16.667 13.29 16.733 13.275 16.772 13.273 C 16.841 13.268 16.913 13.273 16.984 13.273 L 31.665 13.273 C 32.03 13.273 32.007 13.273 31.985 13.648 C 31.966 13.969 31.852 14.068 31.515 14.065 C 29.119 14.048 26.723 14.055 24.325 14.055 Z M 16.881 14.835 L 31.422 14.835 C 31.786 14.835 31.759 14.833 31.71 15.193 C 31.663 15.544 31.518 15.628 31.169 15.625 C 26.608 15.61 22.047 15.613 17.486 15.625 C 17.159 15.625 16.979 15.556 16.955 15.213 C 16.947 15.094 16.908 14.978 16.878 14.833 Z M 24.349 16.395 L 31.026 16.395 C 31.36 16.395 31.328 16.388 31.232 16.714 C 31.119 17.104 30.9 17.185 30.512 17.185 C 26.332 17.168 22.155 17.175 17.975 17.173 C 17.86 17.173 17.707 17.234 17.638 17.109 C 17.528 16.906 17.447 16.689 17.365 16.474 C 17.343 16.412 17.412 16.4 17.464 16.398 L 24.349 16.398 Z M 18.128 17.948 L 30.549 17.948 C 30.216 18.382 29.963 18.745 29.326 18.738 C 26.015 18.703 22.701 18.71 19.39 18.733 C 18.937 18.735 18.62 18.609 18.371 18.249 C 18.31 18.16 18.234 18.079 18.128 17.948 Z M 20.081 19.503 L 28.546 19.503 C 27.149 20.423 22.33 20.628 20.081 19.503 Z" fill="rgb(255,255,255)"></path></svg>