<svg xmlns="http://www.w3.org/2000/svg" xmlns:xlink="http://www.w3.org/1999/xlink" viewBox="0 0 115 33"><path d="M 114.057 13.422 C 114.057 13.958 113.94 14.454 113.705 14.91 C 113.487 15.347 113.175 15.73 112.791 16.03 C 112.405 16.325 111.972 16.553 111.511 16.706 C 111.046 16.865 110.558 16.947 110.066 16.946 C 108.898 16.946 107.969 16.629 107.281 15.993 C 106.592 15.356 106.202 14.5 106.112 13.422 L 108.598 13.422 C 108.724 14.354 109.232 14.821 110.126 14.821 C 110.52 14.821 110.847 14.708 111.107 14.482 C 111.367 14.252 111.496 13.969 111.496 13.633 C 111.496 13.057 111.149 12.674 110.456 12.483 L 109.025 12.1 C 107.193 11.629 106.277 10.627 106.277 9.094 C 106.277 8.398 106.444 7.791 106.778 7.275 C 107.107 6.769 107.575 6.369 108.126 6.126 C 108.686 5.87 109.317 5.743 110.021 5.743 C 111.07 5.743 111.915 6.068 112.559 6.719 C 113.208 7.366 113.553 8.172 113.593 9.139 L 111.219 9.139 C 111.194 8.774 111.077 8.47 110.867 8.23 C 110.663 7.984 110.375 7.862 110.006 7.862 C 109.637 7.862 109.349 7.952 109.145 8.132 C 108.94 8.308 108.838 8.54 108.838 8.831 C 108.838 9.111 108.93 9.33 109.115 9.485 C 109.305 9.635 109.587 9.763 109.962 9.869 L 111.339 10.251 C 112.233 10.502 112.909 10.878 113.369 11.379 C 113.828 11.875 114.057 12.555 114.057 13.422 Z M 20.663 32.917 C 25.033 22.174 8.605 23.046 0.595 18.193 C 1.985 22.011 3.493 23.823 12.105 26.059 C 20.722 28.288 20.663 32.917 20.663 32.917 Z M 22.617 32.731 C 36.214 16.156 10.795 17.148 0 9.349 C 2.006 15.277 4.584 18.996 15.551 21.928 C 26.518 24.858 22.617 32.731 22.617 32.731 Z M 26.347 3.087 C 26.54 2.639 27.209 1.543 27.41 1.088 C 20.983 -0.224 14.221 7.649 14.081 13.659 C 31.162 17.849 30.359 24.775 24.951 33 C 42.025 22.345 24.794 14.032 25.619 9.916 C 26.169 12.13 28.056 13.703 31.006 13.129 C 31.006 13.129 33.272 16 35.873 11.93 C 32.166 8.91 30.055 6.106 26.347 3.086 Z M 102.925 16.398 C 102.206 16.764 101.387 16.947 100.469 16.947 C 99.55 16.947 98.729 16.764 98.005 16.398 C 97.296 16.037 96.706 15.479 96.305 14.79 C 95.891 14.089 95.683 13.272 95.683 12.34 L 95.683 5.953 L 98.289 5.953 L 98.289 12.37 C 98.289 13.137 98.487 13.713 98.881 14.098 C 99.275 14.479 99.805 14.669 100.469 14.669 C 101.133 14.669 101.662 14.479 102.056 14.098 C 102.451 13.713 102.647 13.137 102.647 12.37 L 102.647 5.953 L 105.253 5.953 L 105.253 12.34 C 105.253 13.272 105.046 14.089 104.632 14.79 C 104.23 15.48 103.637 16.039 102.925 16.398 Z M 94.908 13.422 C 94.908 13.958 94.791 14.454 94.556 14.91 C 94.338 15.347 94.026 15.73 93.643 16.03 C 93.256 16.325 92.823 16.553 92.362 16.706 C 91.897 16.865 91.409 16.947 90.917 16.946 C 89.748 16.946 88.82 16.629 88.131 15.993 C 87.442 15.356 87.053 14.5 86.963 13.422 L 89.45 13.422 C 89.574 14.354 90.083 14.821 90.977 14.821 C 91.372 14.821 91.698 14.708 91.957 14.482 C 92.217 14.252 92.347 13.969 92.347 13.633 C 92.347 13.057 92.001 12.674 91.306 12.483 L 89.876 12.1 C 88.044 11.629 87.128 10.627 87.128 9.094 C 87.128 8.398 87.295 7.791 87.63 7.275 C 87.958 6.769 88.426 6.369 88.978 6.126 C 89.536 5.87 90.168 5.743 90.872 5.743 C 91.92 5.743 92.767 6.068 93.411 6.719 C 94.06 7.366 94.404 8.172 94.444 9.139 L 92.07 9.139 C 92.045 8.774 91.928 8.47 91.718 8.23 C 91.513 7.984 91.226 7.862 90.857 7.862 C 90.487 7.862 90.2 7.952 89.996 8.132 C 89.791 8.308 89.689 8.54 89.689 8.831 C 89.689 9.111 89.781 9.33 89.966 9.485 C 90.156 9.635 90.437 9.763 90.812 9.869 L 92.19 10.251 C 93.084 10.502 93.76 10.878 94.219 11.379 C 94.678 11.875 94.908 12.555 94.908 13.422 Z M 83.641 15.203 L 79.178 15.203 L 78.639 16.729 L 75.816 16.729 L 80.436 5.953 L 82.398 5.953 L 87.011 16.729 L 84.187 16.729 Z M 79.942 13.069 L 82.87 13.069 L 81.417 9.003 Z M 70.06 10.988 L 76.276 10.988 L 76.276 11.206 C 76.282 11.991 76.142 12.771 75.863 13.505 C 75.613 14.182 75.228 14.8 74.733 15.324 C 74.248 15.829 73.654 16.228 72.951 16.518 C 72.251 16.804 71.488 16.947 70.659 16.947 C 69.79 16.947 68.989 16.799 68.255 16.504 C 67.527 16.203 66.918 15.797 66.428 15.286 C 65.941 14.771 65.557 14.166 65.298 13.505 C 65.026 12.816 64.889 12.082 64.893 11.341 C 64.893 10.565 65.028 9.835 65.298 9.154 C 65.559 8.493 65.949 7.89 66.443 7.381 C 66.933 6.875 67.541 6.477 68.27 6.186 C 68.999 5.89 69.795 5.743 70.659 5.743 C 72.002 5.743 73.145 6.093 74.089 6.795 C 75.032 7.496 75.678 8.458 76.028 9.68 L 73.451 9.68 C 73.213 9.186 72.845 8.765 72.389 8.462 C 71.929 8.147 71.358 7.99 70.675 7.99 C 69.7 7.99 68.926 8.3 68.352 8.921 C 67.783 9.537 67.5 10.344 67.5 11.341 C 67.5 12.423 67.779 13.267 68.337 13.873 C 68.897 14.474 69.665 14.775 70.644 14.775 C 71.323 14.775 71.902 14.625 72.381 14.324 C 72.841 14.041 73.204 13.624 73.422 13.129 L 70.06 13.129 Z M 64.351 14.452 L 64.351 16.729 L 56.787 16.729 L 56.787 5.953 L 64.291 5.953 L 64.291 8.237 L 59.401 8.237 L 59.401 10.123 L 64.148 10.123 L 64.148 12.408 L 59.401 12.408 L 59.401 14.452 Z M 49.713 13.941 L 49.713 16.729 L 47.1 16.729 L 47.1 5.953 L 52.147 5.953 C 52.891 5.953 53.565 6.128 54.168 6.479 C 54.767 6.818 55.259 7.318 55.591 7.922 C 55.936 8.533 56.108 9.211 56.108 9.958 C 56.108 11.086 55.729 12.032 54.97 12.798 C 54.216 13.56 53.276 13.941 52.147 13.941 Z M 51.78 11.694 C 52.274 11.694 52.683 11.534 53.008 11.214 C 53.333 10.892 53.495 10.474 53.495 9.958 C 53.495 9.447 53.333 9.026 53.009 8.695 C 52.684 8.365 52.274 8.199 51.78 8.199 L 49.713 8.199 L 49.713 11.694 Z M 105.748 19.702 L 106.617 19.702 L 113.017 27.786 L 113.017 19.702 L 114.057 19.702 L 114.057 29.542 L 113.188 29.542 L 106.787 21.459 L 106.787 29.542 L 105.748 29.542 L 105.748 19.703 Z M 93.931 24.622 C 93.931 23.912 94.064 23.242 94.328 22.611 C 94.577 22.002 94.944 21.449 95.408 20.984 C 95.884 20.517 96.449 20.15 97.07 19.907 C 97.728 19.64 98.432 19.504 99.142 19.509 C 99.854 19.504 100.56 19.639 101.221 19.907 C 101.84 20.149 102.403 20.516 102.875 20.984 C 103.343 21.447 103.71 22 103.956 22.611 C 104.22 23.243 104.353 23.912 104.353 24.622 C 104.353 25.331 104.22 26.001 103.956 26.632 C 103.71 27.244 103.342 27.8 102.875 28.266 C 102.4 28.731 101.838 29.097 101.221 29.342 C 100.56 29.61 99.854 29.746 99.142 29.741 C 98.157 29.741 97.266 29.519 96.469 29.075 C 95.69 28.642 95.045 28.004 94.602 27.229 C 94.154 26.447 93.931 25.578 93.931 24.621 Z M 99.142 20.491 C 98.358 20.491 97.652 20.673 97.022 21.04 C 96.409 21.394 95.905 21.912 95.565 22.535 C 95.223 23.162 95.053 23.858 95.053 24.622 C 95.053 25.189 95.153 25.726 95.353 26.235 C 95.548 26.72 95.831 27.164 96.188 27.545 C 96.557 27.925 96.999 28.226 97.487 28.43 C 98.012 28.647 98.575 28.757 99.142 28.753 C 99.936 28.753 100.644 28.567 101.268 28.197 C 101.881 27.844 102.383 27.325 102.718 26.701 C 103.06 26.074 103.231 25.381 103.231 24.621 C 103.231 23.858 103.06 23.162 102.718 22.535 C 102.384 21.912 101.882 21.396 101.268 21.047 C 100.644 20.676 99.936 20.491 99.142 20.491 Z M 91.366 19.702 L 92.481 19.702 L 92.481 29.542 L 91.366 29.542 L 91.366 19.703 Z M 90.122 20.676 L 86.915 20.676 L 86.915 29.542 L 85.8 29.542 L 85.8 20.676 L 82.592 20.676 L 82.592 19.702 L 90.122 19.702 Z M 81.444 25.83 C 81.444 26.96 81.06 27.895 80.294 28.637 C 79.533 29.373 78.558 29.742 77.368 29.742 C 76.177 29.742 75.199 29.374 74.434 28.637 C 73.673 27.895 73.292 26.96 73.292 25.83 L 73.292 19.702 L 74.413 19.702 L 74.413 25.871 C 74.413 26.74 74.684 27.438 75.227 27.964 C 75.774 28.49 76.488 28.754 77.368 28.754 C 78.248 28.754 78.959 28.49 79.501 27.964 C 80.049 27.438 80.322 26.74 80.322 25.871 L 80.322 19.702 L 81.444 19.702 Z M 66.479 19.702 L 67.601 19.702 L 67.601 28.562 L 72.436 28.562 L 72.436 29.542 L 66.479 29.542 L 66.479 19.703 Z M 54.663 24.622 C 54.663 23.912 54.795 23.242 55.06 22.611 C 55.309 22.002 55.676 21.449 56.14 20.984 C 56.616 20.517 57.181 20.15 57.802 19.907 C 58.46 19.64 59.164 19.504 59.874 19.509 C 60.612 19.509 61.306 19.642 61.953 19.907 C 62.572 20.149 63.135 20.516 63.608 20.984 C 64.074 21.447 64.442 22 64.688 22.611 C 64.953 23.248 65.088 23.932 65.084 24.622 C 65.088 25.312 64.953 25.996 64.688 26.632 C 64.441 27.244 64.074 27.8 63.608 28.266 C 63.133 28.731 62.57 29.097 61.953 29.342 C 61.292 29.61 60.586 29.746 59.874 29.741 C 58.889 29.741 57.998 29.519 57.2 29.075 C 56.422 28.642 55.776 28.003 55.333 27.229 C 54.887 26.447 54.663 25.578 54.663 24.621 Z M 59.874 20.491 C 59.089 20.491 58.383 20.673 57.753 21.04 C 57.14 21.394 56.636 21.912 56.298 22.535 C 55.955 23.162 55.784 23.858 55.784 24.622 C 55.784 25.189 55.885 25.726 56.086 26.235 C 56.279 26.72 56.562 27.164 56.919 27.545 C 57.275 27.915 57.709 28.21 58.219 28.43 C 58.744 28.647 59.306 28.757 59.874 28.753 C 60.667 28.753 61.376 28.567 62.001 28.197 C 62.613 27.843 63.115 27.325 63.45 26.701 C 63.793 26.074 63.963 25.381 63.963 24.621 C 63.963 23.858 63.792 23.162 63.45 22.535 C 63.116 21.912 62.614 21.396 62.001 21.047 C 61.376 20.676 60.667 20.491 59.874 20.491 Z M 48.167 26.831 C 48.276 27.449 48.532 27.936 48.932 28.293 C 49.334 28.65 49.872 28.829 50.546 28.829 C 51.23 28.829 51.775 28.65 52.18 28.293 C 52.577 27.958 52.8 27.461 52.789 26.941 C 52.789 26.026 52.219 25.404 51.079 25.075 L 49.863 24.724 C 48.217 24.263 47.394 23.396 47.394 22.124 C 47.394 21.351 47.681 20.721 48.255 20.236 C 48.835 19.752 49.562 19.509 50.437 19.509 C 51.307 19.509 52.014 19.76 52.557 20.264 C 53.104 20.763 53.405 21.4 53.46 22.179 L 52.441 22.179 C 52.377 21.648 52.167 21.223 51.811 20.902 C 51.46 20.582 50.998 20.422 50.423 20.422 C 49.831 20.422 49.357 20.571 49.001 20.868 C 48.65 21.165 48.475 21.575 48.475 22.096 C 48.475 22.563 48.62 22.92 48.912 23.167 C 49.208 23.409 49.651 23.613 50.238 23.778 L 51.401 24.135 C 52.203 24.363 52.814 24.695 53.234 25.13 C 53.658 25.564 53.87 26.146 53.87 26.872 C 53.87 27.714 53.555 28.402 52.926 28.938 C 52.297 29.474 51.5 29.741 50.533 29.741 C 49.58 29.741 48.803 29.478 48.201 28.952 C 47.603 28.426 47.236 27.718 47.1 26.831 Z" fill="rgb(255,255,255)"></path></svg>